<?xml version="1.0" encoding="utf-8"?>
<!DOCTYPE svg PUBLIC "-//W3C//DTD SVG 1.1//EN" "http://www.w3.org/Graphics/SVG/1.1/DTD/svg11.dtd">
<svg version="1.1" id="Isolation_Mode" xmlns="http://www.w3.org/2000/svg" xmlns:xlink="http://www.w3.org/1999/xlink" x="0px"
	 y="0px" viewBox="-258 377.9 79 86" style="enable-background:new -258 377.9 79 86;" xml:space="preserve">
<g>
	<g>
		<path style="fill:white" d="M-228.1,460.5v-5h-3.9v1.7h1.6v1.9c-0.3,0.2-0.6,0.2-1.3,0.2c-1.4,0-2-1.9-2-3.7c0-1.7,0.3-3.4,2-3.4
			c1,0,1.3,0.5,1.6,1.3l1.9-0.9c-0.3-0.9-1.3-2.1-3.4-2.1c-2.7,0-4.6,2-4.6,5c0,3.5,1.8,5.6,4.4,5.6
			C-230.3,461.1-228.6,460.9-228.1,460.5"/>
		<path style="fill:white" d="M-223,455.1V453c-0.5,0-0.8,0-1.2,0.2c-0.5,0.3-0.8,0.6-1,1.1l-0.1-1.1h-2v7.7h2.1v-4.3
			c0-0.8,0.2-1.1,0.6-1.4C-224.1,454.9-223.6,454.9-223,455.1"/>
		<path style="fill:white" d="M-215.6,457c0-2.1-1-4-3.6-4c-2.5,0-3.6,1.9-3.6,4c0,2.1,0.9,4.1,3.6,4.1S-215.6,459.1-215.6,457
			 M-217.8,456.9c0,1.6-0.4,2.7-1.4,2.7s-1.4-1-1.4-2.7c0-1.5,0.4-2.5,1.4-2.5C-218.3,454.4-217.8,455.4-217.8,456.9z"/>
		<path style="fill:white" d="M-208.6,460.8v-7.7h-2.1v4.8c0,0.8-0.5,1.4-1.3,1.4c-0.5,0-0.8-0.3-0.8-0.9v-5.3h-2.2v5.8
			c0,1.3,0.7,2.1,2,2.1c1,0,1.6-0.3,2.3-0.9l0.1,0.7H-208.6"/>
		<path style="fill:white" d="M-200.9,457c0-2-0.8-4-3-4c-0.8,0-1.2,0.2-1.7,0.8l-0.1-0.6h-2v10.2h2.1v-3.1c0.4,0.6,0.9,0.8,1.7,0.8
			C-201.7,461.1-200.9,459-200.9,457 M-203.1,456.8c0,1.3-0.2,2.6-1.3,2.5c-0.8,0-1.1-0.4-1.1-1.3v-2.3c0-0.8,0.4-1.2,1-1.3
			C-203.4,454.5-203.1,455.6-203.1,456.8z"/>
	</g>
	<path style="fill:#bd0a2b" d="M-203.9,403.7l-14.3,24.9h28.7L-203.9,403.7z M-205.9,400.2l-12.6-21.8l-17.8,30.8h25.2L-205.9,400.2z
		 M-238.3,412.7l-9.2,15.9h25.2l9.2-15.9C-213.1,412.7-238.3,412.7-238.3,412.7z"/>
	<path style="fill:white" d="M-247.7,442.5l-1.9-7.2h-2.1l-1.8,7.2l-1.9-7.2h-2.6l2.8,10.2h2.8l1.5-6.1l1.6,6.1h2.7l2.7-10.2h-2L-247.7,442.5z
		 M-230.6,443v-3.6h1.7v-1.5h-1.7V436h-1.2c-0.2,0.6-0.3,1-0.7,1.5c-0.4,0.4-0.6,0.6-1.1,0.7v1.2h0.9v4.5c0,1.5,1.4,1.9,2.4,1.9
		c0.7,0,1.1-0.2,1.7-0.4v-1.5c-0.1,0.1-0.3,0.2-0.8,0.2S-230.6,444.1-230.6,443z M-239.1,437.6c-1,0-1.6,0.3-2.3,0.9v-3.9h-2.1v10.8
		h2.1v-4.8c0-0.8,0.5-1.4,1.3-1.4c0.5,0,0.8,0.3,0.8,0.9v5.3h2.1v-5.7C-237.1,438.4-237.8,437.6-239.1,437.6z M-235.1,434.8
		c-0.6,0-1.1,0.5-1.1,1.1c0,0.6,0.5,1.1,1.1,1.1c0.6,0,1.1-0.5,1.1-1.1C-234,435.3-234.5,434.8-235.1,434.8z M-236.2,445.5h2.1v-7.7
		h-2.1V445.5z M-213.4,443.9c-1.4,0-1.9-1.9-1.9-3.7c0-1.7,0.2-3.3,1.9-3.3c0.9,0,1.4,0.6,1.5,1.2l2-0.8c-0.4-1-1.5-2.2-3.6-2.2
		c-2.7,0-4.5,2.1-4.5,5.1c0,3.5,1.8,5.6,4.4,5.6c1.7,0,3.3-0.9,3.8-2.5l-2-0.7C-212,443.3-212.4,443.9-213.4,443.9z M-185.8,437.8
		h-2.2l-2.4,2.9v-6h-2.1v10.8h2.1v-2.7l0.7-0.8l1.6,3.5h2.5l-2.6-5L-185.8,437.8z M-194.5,437.8c-0.5,0.3-0.8,0.6-1,1.1l-0.1-1.1h-2
		v7.7h2.1v-4.3c0-0.8,0.2-1.1,0.6-1.4c0.5-0.3,1-0.3,1.6-0.1v-2.1C-193.8,437.6-194.1,437.6-194.5,437.8z M-182.3,437.6
		c-2.7,0-3.8,2-3.8,4.1c0,2,1.3,3.9,3.4,4c1.6,0,2.6-0.4,3.4-1.2l-1-1.2c-0.5,0.5-0.9,0.8-1.9,0.8c-0.9,0-1.6-0.6-1.6-1.8h4.8
		C-178.8,440.5-179.6,437.6-182.3,437.6z M-183.7,441c0-1.1,0.3-1.8,1.3-1.8s1.1,0.8,1.1,1.8H-183.7z M-201.7,437.6
		c-1.2,0-2.4,0.4-3,1.1l0.8,1.3c0.4-0.5,1.2-0.8,1.9-0.8c0.6,0,1.2,0.2,1.2,0.7v0.7l-1.6,0.2c-1.5,0.2-2.8,0.9-2.8,2.6
		c0,1.5,1,2.3,2.2,2.3c0.9,0,1.5-0.4,2.2-0.9l0.1,0.7h2v-5.8C-198.6,438.2-199.9,437.6-201.7,437.6z M-200.7,442.9
		c0,0.7-0.7,1.1-1.4,1.1c-0.6,0-0.8-0.2-0.8-0.8c0-1.1,0.9-1.3,2.2-1.5V442.9z M-225,437.6c-2.7,0-3.8,2-3.8,4.1c0,2,1.3,3.9,3.4,4
		c1.6,0,2.6-0.4,3.4-1.2l-1-1.2c-0.5,0.5-0.9,0.8-1.9,0.8c-0.9,0-1.6-0.6-1.6-1.8h4.6C-221.5,440.5-222.3,437.6-225,437.6z
		 M-226.4,441c0-1.1,0.3-1.8,1.3-1.8s1.1,0.8,1.1,1.8H-226.4z M-206.3,444c-0.3-0.1-0.5-0.4-0.5-0.9v-8.5h-2.1v8.9
		c0,1.2,0.6,1.9,1.6,2c0.5,0,1.3,0,1.7-0.2v-1.4C-205.7,444.1-206.1,444.1-206.3,444z"/>
</g>
</svg>
