<svg id="a58ef234-55dd-4456-b368-278f056cc5c7" data-name="Layer 1" xmlns="http://www.w3.org/2000/svg" width="1028"
     height="598.99741" viewBox="0 0 1028 598.99741">
    <title>open source</title>
    <circle cx="332.00497" cy="292.00357" r="292.00357" fill="#f2f2f2"/>
    <path
        d="M1114,668.4987a13.68982,13.68982,0,0,1-.16992,2.12c-7.14014,43.76-234.46008,78.88-513.83008,78.88s-506.69-35.12-513.83-78.88a13.67509,13.67509,0,0,1-.17-2.12c0-.2,0-.41.02-.61,0-.11005.01-.21.01-.32a.48944.48944,0,0,0,.01-.12c.04-.45.1-.88.18-1.32,3.26-17.89,43.35-34.33,108.74-47.5,53.48-10.77,123.89-19.36,204.93-24.76,61.5-4.1,129.12-6.37,200.11-6.37,57.12,0,112.06,1.47,163.38,4.17h.02q16.11.855,31.74,1.87c71.33,4.62,134.63,11.69,185.63,20.54,31.37,5.45,58.1,11.58,79.18994,18.22h.01c32.46,10.23,51.6001,21.7,53.81006,33.83.08.44.13989.87.17993,1.32a.48659.48659,0,0,0,.01.12c0,.11.01.21.01.32C1114,668.08867,1114,668.29869,1114,668.4987Z"
        transform="translate(-86 -150.5013)" fill="#3f3d56"/>
    <ellipse cx="501" cy="571.99741" rx="165" ry="24" opacity="0.1"/>
    <path
        d="M1059.96,632.29869c-5.77,1.65-12.27,3.18-19.3999,4.58-29.36011,5.78-69.42005,9.33-113.53,9.33-49.28,0-93.45-4.43-123.38-11.44-24.84-5.81994-39.88-13.38995-39.88-21.69995,0-7.30005,11.63995-14.06,31.37-19.53,71.33,4.62,134.63,11.69,185.63,20.54C1012.14,619.52867,1038.87,625.65868,1059.96,632.29869Z"
        transform="translate(-86 -150.5013)" opacity="0.1"/>
    <path
        d="M618,621.2487c0,15.13-94.92,27.4-212,27.4s-212-12.27-212-27.4a4.372,4.372,0,0,1,.96-2.62c53.48-10.77,123.89-19.36,204.93-24.76q3.045-.015,6.11-.01C523.08,593.85869,618,606.1187,618,621.2487Z"
        transform="translate(-86 -150.5013)" opacity="0.1"/>
    <g transform="translate(200, 80) scale(0.1)">
        <linearGradient id="SVGID_1_" gradientUnits="userSpaceOnUse" x1="-5167.0962" y1="697.5549" x2="-4570.1162"
                        y2="1395.619" gradientTransform="matrix(0.4226 -0.9063 0.9063 0.4226 3144.8108 -4619.2983)">
            <stop offset="0" style="stop-color:#F69923"/>
            <stop offset="0.3123" style="stop-color:#F79A23"/>
            <stop offset="0.8383" style="stop-color:#E97826"/>
        </linearGradient>
        <path fill="url(#SVGID_1_)" d="M1798.9,20.1C1732.6,59.2,1622.5,170,1491,330.5l120.8,228c84.8-121.3,170.9-230.4,257.8-323.6
	c6.7-7.4,10.2-10.9,10.2-10.9c-3.4,3.6-6.8,7.3-10.2,10.9c-28.1,31-113.4,130.5-242.1,328.1c123.9-6.2,314.3-31.5,469.6-58.1
	c46.2-258.8-45.3-377.3-45.3-377.3S1935.5-60.6,1798.9,20.1z"/>
        <path fill="none" d="M1594.4,1320.7c0.9-0.2,1.8-0.3,2.7-0.5l-17.4,1.9c-1.1,0.5-2,1-3.1,1.4
	C1582.6,1322.6,1588.5,1321.6,1594.4,1320.7z"/>
        <path fill="none" d="M1471.1,1729.1c-9.9,2.2-20,3.9-30.2,5.4C1451.1,1733,1461.2,1731.2,1471.1,1729.1z"/>
        <path fill="none" d="M633.1,2645.2c1.3-3.4,2.6-6.8,3.8-10.2c26.6-70.2,52.9-138.4,79-204.9c29.3-74.6,58.2-146.8,86.8-216.8
	c30.1-73.8,59.8-145.1,89.1-214c30.7-72.3,61-141.9,90.7-208.9c24.2-54.5,48-107.3,71.5-158.4c7.8-17,15.6-33.9,23.4-50.6
	c15.4-33.1,30.7-65.6,45.7-97.3c13.9-29.3,27.7-57.9,41.4-86c4.5-9.4,9.1-18.6,13.6-27.9c0.7-1.5,1.5-3,2.2-4.5l-14.8,1.6
	l-11.8-23.2c-1.1,2.3-2.3,4.5-3.5,6.8c-21.2,42.1-42.2,84.6-63,127.5c-12,24.8-24,49.7-35.9,74.7c-33,69.3-65.5,139.2-97.4,209.6
	c-32.3,71.1-63.9,142.6-94.9,214.2c-30.5,70.3-60.3,140.7-89.6,210.9c-29.2,70.1-57.7,140-85.6,209.4
	c-29.1,72.5-57.4,144.3-84.8,215.3c-6.2,16-12.4,32-18.5,48c-22,57.3-43.4,113.8-64.3,169.6l18.6,36.7l16.6-1.8
	c0.6-1.7,1.2-3.4,1.8-5C580.1,2786.5,606.7,2714.9,633.1,2645.2z"/>
        <path fill="none"
              d="M1433.2,1735.7L1433.2,1735.7c0.1,0,0.1-0.1,0.2-0.1C1433.4,1735.6,1433.3,1735.6,1433.2,1735.7z"/>
        <path fill="#BE202E" d="M1393.2,1934.8c-15.4,2.8-31.3,5.5-47.6,8.3c-0.1,0-0.2,0.1-0.3,0.1c8.2-1.2,16.3-2.4,24.3-3.8
	C1377.6,1938,1385.4,1936.5,1393.2,1934.8z"/>
        <path opacity="0.35" fill="#BE202E" d="M1393.2,1934.8c-15.4,2.8-31.3,5.5-47.6,8.3c-0.1,0-0.2,0.1-0.3,0.1
	c8.2-1.2,16.3-2.4,24.3-3.8C1377.6,1938,1385.4,1936.5,1393.2,1934.8z"/>
        <path fill="#BE202E" d="M1433.6,1735.5c0,0-0.1,0-0.1,0.1c-0.1,0-0.1,0.1-0.2,0.1c2.6-0.3,5.1-0.8,7.6-1.1
	c10.3-1.5,20.4-3.3,30.2-5.4C1458.8,1731.2,1446.3,1733.4,1433.6,1735.5L1433.6,1735.5L1433.6,1735.5z"/>
        <path opacity="0.35" fill="#BE202E" d="M1433.6,1735.5c0,0-0.1,0-0.1,0.1c-0.1,0-0.1,0.1-0.2,0.1c2.6-0.3,5.1-0.8,7.6-1.1
	c10.3-1.5,20.4-3.3,30.2-5.4C1458.8,1731.2,1446.3,1733.4,1433.6,1735.5L1433.6,1735.5L1433.6,1735.5z"/>
        <linearGradient id="SVGID_2_" gradientUnits="userSpaceOnUse" x1="-9585.3418" y1="620.5048" x2="-5326.209"
                        y2="620.5048" gradientTransform="matrix(0.4226 -0.9063 0.9063 0.4226 3144.8108 -4619.2983)">
            <stop offset="0.3233" style="stop-color:#9E2064"/>
            <stop offset="0.6302" style="stop-color:#C92037"/>
            <stop offset="0.7514" style="stop-color:#CD2335"/>
            <stop offset="1" style="stop-color:#E97826"/>
        </linearGradient>
        <path fill="url(#SVGID_2_)" d="M1255.7,1147.6c36.7-68.6,73.9-135.7,111.5-201c39-67.8,78.5-133.6,118.4-197c2.3-3.7,4.7-7.5,7-11.3
	c39.4-62.4,79.2-122.4,119.3-179.8l-120.8-228c-9.1,11.1-18.2,22.4-27.5,33.9c-34.8,43.4-71,90.1-108.1,139.6
	c-41.8,55.8-84.8,115.4-128.5,177.9c-40.3,57.8-81.2,118.3-122.1,180.9c-34.8,53.3-69.8,108.2-104.5,164.5c-1.3,2.1-2.6,4.2-3.9,6.3
	l157.2,310.5C1187.3,1277.6,1221.3,1212,1255.7,1147.6z"/>
        <linearGradient id="SVGID_3_" gradientUnits="userSpaceOnUse" x1="-9071.207" y1="1047.6898" x2="-6533.1782"
                        y2="1047.6898" gradientTransform="matrix(0.4226 -0.9063 0.9063 0.4226 3144.8108 -4619.2983)">
            <stop offset="0" style="stop-color:#282662"/>
            <stop offset="9.548390e-02" style="stop-color:#662E8D"/>
            <stop offset="0.7882" style="stop-color:#9F2064"/>
            <stop offset="0.9487" style="stop-color:#CD2032"/>
        </linearGradient>
        <path fill="url(#SVGID_3_)" d="M539.7,2897.1c-20.8,57.2-41.7,115.4-62.7,174.9c-0.3,0.9-0.6,1.7-0.9,2.6c-3,8.4-5.9,16.8-8.9,25.2
	c-14.1,40.1-26.4,76.2-54.5,158.3c46.3,21.1,83.5,76.7,118.7,139.8c-3.7-65.3-30.8-126.7-82.1-174.2
	c228.3,10.3,425-47.4,526.7-214.3c9.1-14.9,17.4-30.5,24.9-47.2c-46.2,58.6-103.5,83.5-211.4,77.4c-0.2,0.1-0.5,0.2-0.7,0.3
	c0.2-0.1,0.5-0.2,0.7-0.3c158.8-71.1,238.5-139.3,308.9-252.4c16.7-26.8,32.9-56.1,49.5-88.6C1009,2841.2,848.1,2881.8,678.6,2851
	l-127.1,13.9C547.5,2875.6,543.6,2886.3,539.7,2897.1z"/>
        <linearGradient id="SVGID_4_" gradientUnits="userSpaceOnUse" x1="-9346.126" y1="580.817" x2="-5086.9941"
                        y2="580.817" gradientTransform="matrix(0.4226 -0.9063 0.9063 0.4226 3144.8108 -4619.2983)">
            <stop offset="0.3233" style="stop-color:#9E2064"/>
            <stop offset="0.6302" style="stop-color:#C92037"/>
            <stop offset="0.7514" style="stop-color:#CD2335"/>
            <stop offset="1" style="stop-color:#E97826"/>
        </linearGradient>
        <path fill="url(#SVGID_4_)" d="M599,2612.4c27.5-71,55.8-142.8,84.8-215.3c27.8-69.4,56.4-139.2,85.6-209.4
	c29.2-70.2,59.1-140.5,89.6-210.9c31-71.6,62.7-143.1,94.9-214.2c31.9-70.3,64.4-140.3,97.4-209.6c11.9-25,23.9-49.9,35.9-74.7
	c20.8-42.9,41.8-85.4,63-127.5c1.1-2.3,2.3-4.5,3.5-6.8l-157.2-310.5c-2.6,4.2-5.1,8.4-7.7,12.6c-36.6,59.8-73.1,121-108.9,183.5
	c-36.2,63.1-71.7,127.4-106.4,192.6c-29.3,55-57.9,110.5-85.7,166.5c-5.6,11.4-11.1,22.6-16.6,33.9
	c-34.3,70.5-65.2,138.6-93.2,204.1c-31.7,74.2-59.6,145.1-84,212.3c-16.1,44.2-30.7,86.9-44.1,127.9c-11,35-21.5,70.1-31.4,105
	c-23.5,82.3-43.7,164.4-60.3,246.2L516.2,2830c20.9-55.8,42.3-112.3,64.3-169.6C586.6,2644.5,592.8,2628.4,599,2612.4z"/>
        <linearGradient id="SVGID_5_" gradientUnits="userSpaceOnUse" x1="-9035.5029" y1="638.4408" x2="-6797.2012"
                        y2="638.4408" gradientTransform="matrix(0.4226 -0.9063 0.9063 0.4226 3144.8108 -4619.2983)">
            <stop offset="0" style="stop-color:#282662"/>
            <stop offset="9.548390e-02" style="stop-color:#662E8D"/>
            <stop offset="0.7882" style="stop-color:#9F2064"/>
            <stop offset="0.9487" style="stop-color:#CD2032"/>
        </linearGradient>
        <path fill="url(#SVGID_5_)" d="M356.1,2529.2c-19.8,99.8-33.9,199.2-41,298c-0.2,3.5-0.6,6.9-0.8,10.4
	c-49.3-79-181.3-156.1-181-155.4c94.5,137,166.2,273,176.9,406.5c-50.6,10.4-119.9-4.6-200-34.1c83.5,76.7,146.2,97.9,170.6,103.6
	c-76.7,4.8-156.6,57.5-237.1,118.2c117.7-48,212.8-67,280.9-51.6C216.6,3530.6,108.3,3868.2,0,4226.6c33.2-9.8,53-32.1,64.1-62.3
	c19.3-64.9,147.4-490.7,348.1-1050.4c5.7-15.9,11.5-31.9,17.3-48c1.6-4.5,3.3-9,4.9-13.4c21.2-58.7,43.2-118.6,65.9-179.7
	c5.2-13.9,10.4-27.8,15.6-41.8c0.1-0.3,0.2-0.6,0.3-0.8l-157.8-311.8C357.7,2521.9,356.8,2525.5,356.1,2529.2z"/>
        <linearGradient id="SVGID_6_" gradientUnits="userSpaceOnUse" x1="-9346.126" y1="1021.6218" x2="-5086.9941"
                        y2="1021.6218" gradientTransform="matrix(0.4226 -0.9063 0.9063 0.4226 3144.8108 -4619.2983)">
            <stop offset="0.3233" style="stop-color:#9E2064"/>
            <stop offset="0.6302" style="stop-color:#C92037"/>
            <stop offset="0.7514" style="stop-color:#CD2335"/>
            <stop offset="1" style="stop-color:#E97826"/>
        </linearGradient>
        <path fill="url(#SVGID_6_)" d="M1178.1,1370.3c-4.5,9.2-9,18.5-13.6,27.9c-13.6,28.1-27.4,56.7-41.4,86
	c-15.1,31.7-30.3,64.1-45.7,97.3c-7.8,16.7-15.5,33.5-23.4,50.6c-23.5,51.1-47.3,103.9-71.5,158.4c-29.7,67-60,136.6-90.7,208.9
	c-29.3,68.9-59,140.2-89.1,214c-28.6,70-57.5,142.3-86.8,216.8c-26.1,66.5-52.4,134.7-79,204.9c-1.3,3.4-2.6,6.8-3.8,10.2
	c-26.4,69.7-53,141.3-79.8,214.7c-0.6,1.7-1.2,3.4-1.8,5l127.1-13.9c-2.5-0.5-5.1-0.8-7.6-1.3c152-18.9,354-132.5,484.6-272.7
	c60.2-64.6,114.8-140.8,165.3-230c37.6-66.4,72.9-140,106.5-221.5c29.4-71.2,57.6-148.3,84.8-231.9c-34.9,18.4-74.9,31.9-119,41.3
	c-7.7,1.6-15.6,3.2-23.6,4.6c-8,1.4-16.1,2.7-24.3,3.8l0,0l0,0c0.1,0,0.2-0.1,0.3-0.1c141.7-54.5,231.1-159.8,296.1-288.7
	c-37.3,25.4-97.9,58.7-170.5,74.7c-9.9,2.2-20,3.9-30.2,5.4c-2.6,0.4-5.1,0.8-7.6,1.1l0,0l0,0c0.1,0,0.1-0.1,0.2-0.1
	c0,0,0.1,0,0.1-0.1l0,0c49.2-20.6,90.7-43.6,126.7-70.8c7.7-5.8,15.2-11.8,22.4-18.1c11-9.5,21.4-19.5,31.4-30
	c6.4-6.7,12.6-13.6,18.6-20.8c14.1-16.8,27.3-34.9,39.7-54.6c3.8-6,7.5-12.1,11.2-18.4c4.7-9.1,9.2-18,13.6-26.8
	c19.8-39.8,35.6-75.3,48.2-106.5c6.3-15.6,11.8-30,16.5-43.4c1.9-5.3,3.7-10.5,5.4-15.5c5-15,9.1-28.3,12.3-40
	c4.8-17.5,7.7-31.4,9.3-41.5l0,0l0,0c-4.8,3.8-10.3,7.6-16.5,11.3c-42.8,25.6-116.2,48.8-175.4,59.7l116.7-12.8l-116.7,12.8
	c-0.9,0.2-1.8,0.3-2.7,0.5c-5.9,1-11.9,1.9-17.9,2.9c1.1-0.5,2-1,3.1-1.4l-399.3,43.8C1179.6,1367.4,1178.9,1368.8,1178.1,1370.3z"
        />
        <linearGradient id="SVGID_7_" gradientUnits="userSpaceOnUse" x1="-9610.334" y1="999.733" x2="-5351.2017"
                        y2="999.733" gradientTransform="matrix(0.4226 -0.9063 0.9063 0.4226 3144.8108 -4619.2983)">
            <stop offset="0.3233" style="stop-color:#9E2064"/>
            <stop offset="0.6302" style="stop-color:#C92037"/>
            <stop offset="0.7514" style="stop-color:#CD2335"/>
            <stop offset="1" style="stop-color:#E97826"/>
        </linearGradient>
        <path fill="url(#SVGID_7_)" d="M1627.6,563.1c-35.5,54.5-74.3,116.4-116,186.5c-2.2,3.6-4.4,7.4-6.6,11.1
	c-36,60.7-74.3,127.3-114.5,200.3c-34.8,63-71,130.6-108.6,203.3c-32.8,63.3-66.7,130.5-101.5,201.6l399.3-43.8
	c116.3-53.5,168.3-101.9,218.8-171.9c13.4-19.3,26.9-39.5,40.3-60.4c41-64,81.2-134.5,117.2-204.6c34.7-67.7,65.3-134.8,88.8-195.3
	c14.9-38.5,26.9-74.3,35.2-105.7c7.3-27.7,13-54,17.4-79.1C1941.9,531.6,1751.5,557,1627.6,563.1z"/>
        <path fill="#BE202E"
              d="M1369.6,1939.4c-8,1.4-16.1,2.7-24.3,3.8l0,0C1353.5,1942.1,1361.6,1940.8,1369.6,1939.4z"/>
        <path opacity="0.35" fill="#BE202E"
              d="M1369.6,1939.4c-8,1.4-16.1,2.7-24.3,3.8l0,0C1353.5,1942.1,1361.6,1940.8,1369.6,1939.4z"/>
        <linearGradient id="SVGID_8_" gradientUnits="userSpaceOnUse" x1="-9346.126" y1="1152.7261" x2="-5086.9941"
                        y2="1152.7261" gradientTransform="matrix(0.4226 -0.9063 0.9063 0.4226 3144.8108 -4619.2983)">
            <stop offset="0.3233" style="stop-color:#9E2064"/>
            <stop offset="0.6302" style="stop-color:#C92037"/>
            <stop offset="0.7514" style="stop-color:#CD2335"/>
            <stop offset="1" style="stop-color:#E97826"/>
        </linearGradient>
        <path fill="url(#SVGID_8_)"
              d="M1369.6,1939.4c-8,1.4-16.1,2.7-24.3,3.8l0,0C1353.5,1942.1,1361.6,1940.8,1369.6,1939.4z"/>
        <path fill="#BE202E"
              d="M1433.2,1735.7c2.6-0.3,5.1-0.8,7.6-1.1C1438.3,1734.9,1435.8,1735.3,1433.2,1735.7L1433.2,1735.7z"/>
        <path opacity="0.35" fill="#BE202E" d="M1433.2,1735.7c2.6-0.3,5.1-0.8,7.6-1.1C1438.3,1734.9,1435.8,1735.3,1433.2,1735.7
	L1433.2,1735.7z"/>
        <linearGradient id="SVGID_9_" gradientUnits="userSpaceOnUse" x1="-9346.126" y1="1137.7247" x2="-5086.9941"
                        y2="1137.7247" gradientTransform="matrix(0.4226 -0.9063 0.9063 0.4226 3144.8108 -4619.2983)">
            <stop offset="0.3233" style="stop-color:#9E2064"/>
            <stop offset="0.6302" style="stop-color:#C92037"/>
            <stop offset="0.7514" style="stop-color:#CD2335"/>
            <stop offset="1" style="stop-color:#E97826"/>
        </linearGradient>
        <path fill="url(#SVGID_9_)"
              d="M1433.2,1735.7c2.6-0.3,5.1-0.8,7.6-1.1C1438.3,1734.9,1435.8,1735.3,1433.2,1735.7L1433.2,1735.7z"
        />
        <path fill="#BE202E"
              d="M1433.5,1735.6c0,0,0.1,0,0.1-0.1l0,0l0,0l0,0C1433.6,1735.5,1433.5,1735.5,1433.5,1735.6z"/>
        <path opacity="0.35" fill="#BE202E"
              d="M1433.5,1735.6c0,0,0.1,0,0.1-0.1l0,0l0,0l0,0C1433.6,1735.5,1433.5,1735.5,1433.5,1735.6z"
        />
        <linearGradient id="SVGID_10_" gradientUnits="userSpaceOnUse" x1="-6953.4072" y1="1134.7161" x2="-6011.9995"
                        y2="1134.7161" gradientTransform="matrix(0.4226 -0.9063 0.9063 0.4226 3144.8108 -4619.2983)">
            <stop offset="0.3233" style="stop-color:#9E2064"/>
            <stop offset="0.6302" style="stop-color:#C92037"/>
            <stop offset="0.7514" style="stop-color:#CD2335"/>
            <stop offset="1" style="stop-color:#E97826"/>
        </linearGradient>
        <path fill="url(#SVGID_10_)"
              d="M1433.5,1735.6c0,0,0.1,0,0.1-0.1l0,0l0,0l0,0C1433.6,1735.5,1433.5,1735.5,1433.5,1735.6z"/>
        v-70.7l30.3,61.3h8.1l30.3-61.3v70.7h11.7V387H2377z"/>
    </g>
    <g transform="translate(720 380) scale(6.5)" fill-rule="evenodd">
        <g fill="#2b118a">
            <path
                d="M42.166-.22c.835-1.953.82-3.865.3-5.387C41.833-7.48 39.234-9.93 38.4-8.96c-.108.135-1.603-.04-1.845.283-.35.47-.148.62.027.78.525.47 1.872.983 2.464 2.572.256.673.848 2.25-.175 3.192-1.172 1.064-2.478 1.306-7.838-3.676-5.7-5.32-13.386-3.15-15.918-2.316-2.545.848-3.703 1.683-2.707 3.65 1.36 2.666.916 1.845 2.235 4.04 2.1 3.5 6.693-1.616 6.693-1.616-3.42 5.158-6.356 3.905-7.487 2.114-1-1.63-1.805-3.5-1.805-3.5C3.382-.3 5.725 13.5 5.725 13.5h4.3c1.104-5.077 5.023-4.888 5.696 0h3.286c2.9-9.925 9.117 0 9.117 0h3.7c0-5.292-.552-7.285 2.155-7.65 4.633-.633 6.787-2.8 8.188-6.06z"/>
            <path
                d="M42.826-3.815a13.45 13.45 0 0 0-2.316.404c-.027.027-.04.054-.067.094-.337.377-.754.754-1.24.956a1.23 1.23 0 0 1-.189.094c-.04.04-.08.094-.135.135-1.172 1.064-2.586 1.306-7.838-3.676-5.656-5.36-13.372-3.138-15.918-2.303s-3.703 1.67-2.707 3.636c1.36 2.666.916 1.845 2.235 4.04 2.1 3.5 6.693-1.616 6.693-1.616-3.42 5.158-6.356 3.905-7.487 2.114-1-1.63-1.805-3.5-1.805-3.5C3.382-.3 5.725 13.5 5.725 13.5h4.3c1.104-5.077 5.023-4.888 5.696 0h3.286c2.9-9.925 9.117 0 9.117 0h3.7c0-5.292-.552-7.285 2.155-7.65 4.62-.633 6.774-2.788 8.174-6.06.552-1.252.74-2.478.673-3.596z"/>
        </g>
        <g transform="matrix(.134666 0 0 .134666 3.786295 -12.554531)">
            <path d="M173.7 75.2l34.6 11.5c-1.1 5.3-11 15.5-23.8 11.2-16.8-5.6-10.8-22.7-10.8-22.7z" fill="#fff"/>
            <ellipse transform="matrix(.9944 -.1056 .1056 .9944 -8.0067 20.6062)" cx="190.6" cy="85.9" rx="8.9" ry="8.6"
                     fill="#2b118a"/>
        </g>
        <path
            d="M36.6-7.895c.148.135.337.256.525.377.902-.74 2.06-.727 3.03-1.13-.875-.808-2.25-1.427-2.693-.902-.108.135-.646.552-.9.875-.35.47-.148.62.027.78z"
            fill="#2b118a"/>
    </g>
    <path
        d="M839.41688,660.83685c0,48.73748-67.93425,33.66253-151.11288,33.66253s-150.10359,15.075-150.10359-33.66253,67.925-59.33747,151.10359-59.33747S839.41688,612.09937,839.41688,660.83685Z"
        transform="translate(-86 -150.5013)" opacity="0.1"/>
    <path
        d="M839.41688,648.83685c0,48.73748-67.93425,33.66253-151.11288,33.66253s-150.10359,15.075-150.10359-33.66253,67.925-59.33747,151.10359-59.33747S839.41688,600.09937,839.41688,648.83685Z"
        transform="translate(-86 -150.5013)" fill="#3f3d56"/>
    <path
        d="M825.54156,561.34329l3.43359,14.16355a.88462.88462,0,0,1-.01719.478l-15.57547,48.67335a.88465.88465,0,0,1-1.72156-.16974l-2.15469-18.96122a.88471.88471,0,0,1,.03787-.374l14.29657-43.87567A.88465.88465,0,0,1,825.54156,561.34329Z"
        transform="translate(-86 -150.5013)" fill="#2f2e41"/>
    <polygon points="738.278 412.038 741.449 424.19 727.711 468.572 724.541 454.835 738.278 412.038" fill="#f2f2f2"/>
    <path
        d="M755.06392,628.58381c.52836,1.58507,54.949-.52835,55.47732-1.05671a11.4687,11.4687,0,0,0,1.16235-2.11342c.49669-1.05671.95107-2.11342.95107-2.11342l-2.11342-17.10815L756.649,604.27946s-1.34734,14.49808-1.62209,21.13422A15.85321,15.85321,0,0,0,755.06392,628.58381Z"
        transform="translate(-86 -150.5013)" fill="#2f2e41"/>
    <polygon points="717.673 458.005 718.729 472.799 694.953 472.799 694.953 458.005 717.673 458.005" opacity="0.1"/>
    <polygon points="687.028 462.76 687.17 462.732 686.5 469.1 673.291 469.1 673.291 462.76 687.028 462.76"
             opacity="0.1"/>
    <path
        d="M755.06392,628.58381c.52836,1.58507,54.949-.52835,55.47732-1.05671a11.4687,11.4687,0,0,0,1.16235-2.11342H755.0269A15.85321,15.85321,0,0,0,755.06392,628.58381Z"
        transform="translate(-86 -150.5013)" opacity="0.1"/>
    <path
        d="M671.05541,573.10649h14.79395l36.45652-14.26559s25.88942-10.56711,23.776,9.5104S740.27,615.37493,740.27,615.37493s-11.62382-5.28356-17.96409-3.69849-2.11342-32.22968-2.11342-32.22968-51.77883,24.8327-56.534,21.66257-5.81191-25.36106-5.81191-25.36106Z"
        transform="translate(-86 -150.5013)" fill="#2f2e41"/>
    <path
        d="M671.05541,573.10649h14.79395l36.45652-14.26559s25.88942-10.56711,23.776,9.5104S740.27,615.37493,740.27,615.37493s-11.62382-5.28356-17.96409-3.69849-2.11342-32.22968-2.11342-32.22968-51.77883,24.8327-56.534,21.66257-5.81191-25.36106-5.81191-25.36106Z"
        transform="translate(-86 -150.5013)" opacity="0.1"/>
    <path
        d="M694.36337,526.77716l17.90376,25.72347,41.74008,34.87146s38.56994,8.982,33.28639,15.32231-37.51323-6.34027-37.51323-6.34027S701.7,561.48268,700.115,558.8409s-19.0208-27.47448-19.0208-27.47448Z"
        transform="translate(-86 -150.5013)" fill="#a0616a"/>
    <path
        d="M694.36337,526.77716l17.90376,25.72347,41.74008,34.87146s38.56994,8.982,33.28639,15.32231-37.51323-6.34027-37.51323-6.34027S701.7,561.48268,700.115,558.8409s-19.0208-27.47448-19.0208-27.47448Z"
        transform="translate(-86 -150.5013)" opacity="0.1"/>
    <circle cx="605.66127" cy="324.33109" r="23.77599" fill="#a0616a"/>
    <path
        d="M690.0762,495.9666s-7.92533,13.73724-9.51039,21.13422-23.776-14.79395-23.776-14.79395l-2.90595-7.66115s20.87-9.77458,19.285-17.69991S690.0762,495.9666,690.0762,495.9666Z"
        transform="translate(-86 -150.5013)" fill="#a0616a"/>
    <path
        d="M683.73594,506.00536l11.62382,22.71928s-2.64178,11.09546-6.86862,12.15217-22.19093-13.73724-22.19093-13.73724Z"
        transform="translate(-86 -150.5013)" fill="#d0cde1"/>
    <path
        d="M694.30305,537.17833l21.66257,28.53119,51.77883,38.56994s37.51323,7.92534,29.05955,13.73724-32.758-5.28355-32.758-5.28355-52.30718-28.00284-63.40265-39.62666-31.70132-31.173-31.70132-31.173Z"
        transform="translate(-86 -150.5013)" fill="#a0616a"/>
    <path
        d="M665.2435,581.56018l6.34026,10.03875,37.83932-11.9045a29.75135,29.75135,0,0,1,24.7708,2.98851c6.60444,4.1608,10.83129,10.76524,1.32089,20.53981-19.0208,19.54915-31.70133,8.982-31.70133,8.982s-63.931,30.11625-74.49811,15.3223-11.09546-22.19093-11.09546-22.19093S658.90323,579.97511,665.2435,581.56018Z"
        transform="translate(-86 -150.5013)" fill="#2f2e41"/>
    <path
        d="M744.49681,616.43164s16.90737,11.09546-3.17013,16.379-34.87146-2.11343-34.87146-2.11343-17.43573,0-17.43573-8.982,5.81191-10.03875,5.81191-10.03875l17.96409,2.64178S734.45806,608.50631,744.49681,616.43164Z"
        transform="translate(-86 -150.5013)" fill="#d0cde1"/>
    <path
        d="M711.16583,468.8514a17.728,17.728,0,0,0,4.98235,1.78469,4.548,4.548,0,0,0,4.59533-1.96886,6.18073,6.18073,0,0,0,.522-2.7952c.06365-2.90132-.14619-6.03778-1.98475-8.28309-1.1701-1.429-2.87816-2.32977-4.08936-3.72406a17.59821,17.59821,0,0,1-2.06717-3.37767c-2.35552-4.42406-5.84318-8.67589-10.69025-9.9513a23.18347,23.18347,0,0,0-6.24-.47707l-12.20625.17221a21.25081,21.25081,0,0,0-5.872.632c-3.92885,1.1879-6.78945,4.49179-9.40936,7.65139a47.85117,47.85117,0,0,0-5.39639,7.44763,26.133,26.133,0,0,0-3.09771,12.80437,11.97989,11.97989,0,0,0,.43881,3.38808,18.80129,18.80129,0,0,0,1.33168,2.925c2.28907,4.49613,3.64824,10.1121,1.07032,14.44908,4.47812-1.82926,8.90892-4.22774,11.863-8.05834,1.3215-1.71364,2.35787-3.7197,4.119-4.9772s4.63076-1.36658,5.76072.479a5.163,5.163,0,0,1,.58258,2.41835,11.084,11.084,0,0,0,.66762,4.08133,3.05833,3.05833,0,0,0,3.32224,1.8956c2.30039-.648,2.0801-4.17861,3.85194-5.78243,1.3456-1.218,3.42157-.98516,5.15028-1.53807a7.64334,7.64334,0,0,0,4.38653-4.32052c.65453-1.46807.64508-5.3098,1.88365-6.10481C706.19386,466.62453,709.72609,468.20958,711.16583,468.8514Z"
        transform="translate(-86 -150.5013)" fill="#2f2e41"/>
    <path
        d="M651.99646,492.13947a6.27057,6.27057,0,0,1,3.26389.00831c3.39162.91054,10.99473,3.321,12.62493,6.989,2.11342,4.7552,9.51039,12.15217,9.51039,12.15217s10.03876,10.03875,7.92534,16.90737-10.03876,14.794-10.03876,14.794,2.11342,32.758-8.45368,41.21172-14.794,2.64178-14.794,10.56711-32.758,32.758-39.0983,17.43573c0,0,3.17014-28.5312,2.11343-38.56995C614.00826,563.74087,615.53292,502.01108,651.99646,492.13947Z"
        transform="translate(-86 -150.5013)" fill="#d0cde1"/>
    <path
        d="M668.942,505.477s32.22968,23.776,26.41777,33.81475c0,0-19.54915,9.5104-23.776,8.982s-20.60586-19.02079-24.8327-20.60586S640.4108,497.55167,668.942,505.477Z"
        transform="translate(-86 -150.5013)" fill="#d0cde1"/>
    <path
        d="M579.81065,526.78274c-5.01266,1.69284-9.5539,5.65228-10.58039,10.84253-.47582,2.40592-.18409,4.907-.58451,7.32661-.92865,5.61161-5.33358,9.89722-9.39638,13.878s-8.2584,8.60617-8.55492,14.28636c-.3247,6.22,4.1862,12.047,3.40563,18.22633-.90687,7.17909-8.48947,11.831-10.36389,18.82016-1.25164,4.667.28211,9.6942,2.8055,13.81484,4.80858,7.85231,13.0279,13.18323,21.78085,16.041s18.07506,3.45905,27.28222,3.55552c11.21079.11746,23.38277-.845,31.806-8.244a25.48043,25.48043,0,0,0,8.459-16.5882c.8002-8.57064-2.77695-17.42641-.30951-25.67311,1.55287-5.19,5.44709-9.93,4.86592-15.316-.56823-5.26625-5.16773-8.99907-8.32312-13.25346-2.9461-3.97222-4.7338-8.66319-6.48587-13.28794l-5.99481-15.82383c-1.17848-3.1107-2.47257-6.38232-5.09885-8.424-4.91665-3.8221-12.82242-3.07115-18.57152-2.28285C590.61855,525.412,584.93966,525.0506,579.81065,526.78274Z"
        transform="translate(-86 -150.5013)" fill="#2f2e41"/>
    <path
        d="M581.68806,572.87747s2.65748,8.63681-17.27362,18.60236,1.99311,20.59548,1.99311,20.59548l23.25295,5.315s23.91732-3.32185,26.5748-7.30808,7.30808-17.27362,5.97934-19.26673a31.0614,31.0614,0,0,0-3.32186-3.98622s-15.94488-2.65748-15.28051-9.96555S581.68806,572.87747,581.68806,572.87747Z"
        transform="translate(-86 -150.5013)" fill="#ffb9b9"/>
    <path
        d="M581.68806,572.87747s2.65748,8.63681-17.27362,18.60236,1.99311,20.59548,1.99311,20.59548l23.25295,5.315s23.91732-3.32185,26.5748-7.30808,7.30808-17.27362,5.97934-19.26673a31.0614,31.0614,0,0,0-3.32186-3.98622s-15.94488-2.65748-15.28051-9.96555S581.68806,572.87747,581.68806,572.87747Z"
        transform="translate(-86 -150.5013)" opacity="0.1"/>
    <circle cx="508.64328" cy="414.73592" r="21.25984" fill="#ffb9b9"/>
    <path
        d="M592.318,610.08219s-25.60367-1.87245-26.08923-19.53858c0,0-9.12238-1.05689-11.77986,1.60059s-11.2943,4.65059-11.2943,11.29429,14.61615,26.57481,14.61615,26.57481,7.97244,26.5748,4.65059,31.22539-3.98622,16.60925-3.98622,16.60925,33.2185-2.65748,38.53346,0,26.57481,2.65748,27.90355,0-1.32874-35.876-1.32874-35.876,5.97933-7.97244,4.65059-17.27362L644.13885,606.096s-5.97933-17.938-15.28051-17.938c0,0-12.623-3.32185-12.95522-1.66092S622.21464,606.76034,592.318,610.08219Z"
        transform="translate(-86 -150.5013)" fill="#ff6584"/>
    <path
        d="M532.52467,668.54676s5.97933,9.30118,21.25985,11.29429,17.938-3.32185,16.60925-4.65059-17.27362-7.30807-17.27362-7.30807l-9.30119-7.30807Z"
        transform="translate(-86 -150.5013)" fill="#ffb9b9"/>
    <path
        d="M641.48137,660.57432l-17.27362,9.96555s-22.58859-1.32874-13.95178,5.315,24.5817,3.98622,24.5817,3.98622l15.28051-7.30807Z"
        transform="translate(-86 -150.5013)" fill="#ffb9b9"/>
    <path
        d="M555.11326,677.84794s-15.94489,39.19784,3.32185,45.17717,72.41634,4.65059,84.375-3.32185,15.28051-18.60236,13.2874-21.92421-15.28051-12.623-24.58169-13.2874S555.11326,677.84794,555.11326,677.84794Z"
        transform="translate(-86 -150.5013)" fill="#2f2e41"/>
    <path
        d="M555.11326,677.84794s-15.94489,39.19784,3.32185,45.17717,72.41634,4.65059,84.375-3.32185,15.28051-18.60236,13.2874-21.92421-15.28051-12.623-24.58169-13.2874S555.11326,677.84794,555.11326,677.84794Z"
        transform="translate(-86 -150.5013)" opacity="0.05"/>
    <path
        d="M630.37766,680.28318s56.28087-20.37323,55.6165,4.20847-35.876,31.22539-35.876,31.22539l-10.62992,1.32874-58.46457,1.99311s1.99311-10.62992-2.65748-11.95866c0,0,15.28051-3.98622,15.94488-4.65059s38.53347-13.95177,41.19095-14.61614,10.62992-5.97934,16.60925-5.315c0,0,6.6437-5.315,13.95177-3.98622l-20.59547,1.32874Z"
        transform="translate(-86 -150.5013)" fill="#2f2e41"/>
    <path
        d="M630.37766,680.28318s56.28087-20.37323,55.6165,4.20847-35.876,31.22539-35.876,31.22539l-10.62992,1.32874-58.46457,1.99311s1.99311-10.62992-2.65748-11.95866c0,0,15.28051-3.98622,15.94488-4.65059s38.53347-13.95177,41.19095-14.61614,10.62992-5.97934,16.60925-5.315c0,0,6.6437-5.315,13.95177-3.98622l-20.59547,1.32874Z"
        transform="translate(-86 -150.5013)" opacity="0.1"/>
    <polygon
        points="534.434 533.081 541.53 549.271 584.714 533.99 588.036 525.354 576.741 523.36 554.035 527.347 544.187 530.004 534.434 533.081"
        fill="#2f2e41"/>
    <polygon
        points="534.434 533.081 541.53 549.271 584.714 533.99 588.036 525.354 576.741 523.36 554.035 527.347 544.187 530.004 534.434 533.081"
        opacity="0.1"/>
    <path
        d="M528.53845,703.094s12.623,15.94488,27.23918,19.9311,22.58858-1.32874,22.58858-1.32874L573.71562,703.094l-1.99311-11.95866L563.0857,685.156l-17.27363-7.97245-20.59547-6.6437s-8.63681-1.32874-8.63681,0,7.97244,21.25985,7.97244,21.25985Z"
        transform="translate(-86 -150.5013)" fill="#2f2e41"/>
    <path
        d="M543.819,711.73082s2.65748,19.26673,5.97934,20.59547,13.2874-1.32874,15.94488-2.65748,11.69054-7.45919,11.69054-7.45919S545.81207,710.40208,543.819,711.73082Z"
        transform="translate(-86 -150.5013)" fill="#f2f2f2"/>
    <polygon points="518.277 563.223 530.9 565.216 529.571 580.496 511.964 576.22 518.277 563.223" fill="#ffb9b9"/>
    <path
        d="M612.18567,717.97655s-5.91592,7.04167.06341,11.02789l3.98622,3.32185s13.28741,2.65748,14.61615,3.98622,6.6437-1.99311,6.6437-1.99311.66437-19.9311,0-21.25984-8.63681-2.65748-9.30118-1.32874-8.63682,3.32185-13.28741,1.99311Z"
        transform="translate(-86 -150.5013)" fill="#f2f2f2"/>
    <path
        d="M559.09948,682.49853s-46.50591-27.23917-53.814-17.27362-15.28051,23.91733,5.97933,34.54725,87.69685,32.55413,87.69685,32.55413,9.96555-15.28051,9.96555-19.26673c0,0-35.21161-15.94488-41.19094-17.27362s-29.89666-16.60926-33.21851-17.938-7.97244-5.315-7.97244-5.315Z"
        transform="translate(-86 -150.5013)" fill="#2f2e41"/>
    <path
        d="M545.81207,600.11664l-2.65748,1.99311s-5.97933,15.28052-6.6437,23.91733-8.63681,35.21161-7.97244,38.53346,1.32874,5.97933,5.315,9.30118c0,0,5.315-11.95866,14.61615-9.96555l11.29429-41.19094Z"
        transform="translate(-86 -150.5013)" fill="#ff6584"/>
    <path
        d="M638.82389,600.11664l5.315,5.97933s3.32185,7.97245,3.32185,9.96556,6.6437,31.22539,7.30807,32.55413,3.32185,17.938,0,21.92421-9.30118,6.6437-9.30118,6.6437,3.98622-13.95177-8.63681-14.61614l1.32874-5.315-11.95866-39.8622Z"
        transform="translate(-86 -150.5013)" fill="#ff6584"/>
    <path
        d="M547.14082,645.85762v34.9949a8.41342,8.41342,0,0,0,8.2888,8.41251l73.18511,1.08423a8.41344,8.41344,0,0,0,8.53185-8.08916l1.34611-34.999a8.41344,8.41344,0,0,0-8.28529-8.73591l-74.53123-1.08016A8.41342,8.41342,0,0,0,547.14082,645.85762Z"
        transform="translate(-86 -150.5013)" fill="#3f3d56"/>
    <ellipse cx="509.89011" cy="401.732" rx="22.88412" ry="12.32222" fill="#2f2e41"/>
    <circle cx="505.9858" cy="513.72706" r="5.31496" fill="#f2f2f2"/>
</svg>
